<svg version="1.2" xmlns="http://www.w3.org/2000/svg" viewBox="0 0 1024 1024" width="1024" height="1024">
	<style>
		.s0 { fill: #0d71fe } 
		.s1 { fill: #0d71fd } 
		.s2 { fill: #0e83f8 } 
		.s3 { fill: #0d86fc } 
		.s4 { fill: #0e7ef0 } 
		.s5 { fill: #0c7ffc } 
		.s6 { fill: #0b73ec } 
		.s7 { fill: #0b6dd7 } 
		.s8 { fill: #0c72dc } 
		.s9 { fill: #090c1b } 
		.s10 { fill: #0d74e6 } 
		.s11 { fill: #0c70db } 
	</style>
	<path class="s0" d="m441.6 190.89c11.46 9.59 21.86 20.31 32.39 30.89q4.25 4.27 8.51 8.54 8.05 8.05 16.08 16.12 9.14 9.17 18.29 18.33 18.04 18.07 36.07 36.16 2.13 2.14 4.33 4.21c1.73 1.86 1.73 1.86 1.73 3.86q1.48 0.49 3 1 0 0.99 0 2 0.99 0 2 0 0 0.99 0 2 0.87 0.37 1.77 0.75c2.58 1.45 3.94 2.98 5.84 5.24 7.46 8.47 15.59 16.3 23.59 24.25q2.77 2.75 5.54 5.51 5.17 5.15 10.34 10.29 10.15 10.1 20.29 20.21 1.6 1.59 3.2 3.19 2.42 2.41 4.84 4.83 9.11 9.08 18.22 18.16 0.83 0.82 1.68 1.67 13.52 13.47 27.05 26.93 13.91 13.83 27.79 27.69 8.56 8.54 17.14 17.06 6.56 6.51 13.09 13.05 2.69 2.69 5.39 5.36 3.67 3.63 7.31 7.3c1.09 1.06 1.09 1.06 2.2 2.15 0.96 0.98 0.96 0.98 1.95 1.98q0.84 0.83 1.71 1.7c1.06 1.68 1.06 1.68 1.05 3.56-1.42 3.05-3.62 5.16-5.99 7.5q-0.79 0.79-1.6 1.61-2.68 2.69-5.37 5.36-1.94 1.94-3.87 3.89-5.33 5.34-10.68 10.67-5.75 5.75-11.49 11.51-11.27 11.28-22.55 22.54-9.17 9.16-18.33 18.33c-1.3 1.31-1.3 1.31-2.63 2.64q-2.65 2.64-5.29 5.29-24.14 24.14-48.29 48.27-22.03 22.01-44.05 44.05-24.72 24.75-49.47 49.49-2.64 2.64-5.29 5.28-1.29 1.29-2.62 2.62-9.15 9.15-18.29 18.3-11.15 11.16-22.32 22.31-5.7 5.69-11.39 11.38-5.2 5.22-10.43 10.43-1.89 1.88-3.76 3.76c-21.02 21.14-21.02 21.14-36.28 21.36-1.21-0.02-1.21-0.02-2.44-0.03-1.26-0.01-1.26-0.01-2.54-0.03-6.09-0.16-10.9-0.91-16.02-4.41q-1.05-0.68-2.13-1.39c-8.07-5.65-13.28-13.11-16.49-22.41-1.87-10.84-1.33-22.01 5.01-31.23 4.95-6.44 10.52-12.14 16.28-17.84q1.62-1.61 3.23-3.22 4.4-4.39 8.81-8.76 4.76-4.74 9.52-9.48 8.23-8.21 16.48-16.4 13.02-12.96 26.02-25.93 4.45-4.44 8.91-8.88c1.11-1.11 1.11-1.11 2.24-2.25q12.65-12.61 25.3-25.22 1.15-1.14 2.34-2.32 18.77-18.7 37.55-37.38 19.28-19.19 38.54-38.41 11.87-11.86 23.78-23.68 8.15-8.09 16.26-16.21 4.69-4.69 9.4-9.36 4.32-4.26 8.59-8.56 1.55-1.56 3.12-3.1 2.12-2.09 4.21-4.21c1.18-1.17 1.18-1.17 2.38-2.36 2.1-3.05 2.14-4.77 1.65-8.4-1.75-2.3-3.36-4.12-5.43-6.09q-0.86-0.86-1.75-1.75-2.87-2.85-5.77-5.66-2-1.98-4-3.97-5.27-5.22-10.57-10.41-6.41-6.29-12.8-12.62-4.97-4.92-9.97-9.83-0.91-0.9-1.86-1.83-1.71-1.68-3.42-3.35c-3.38-3.33-6.42-6.82-9.43-10.49-1.71-1.6-1.71-1.6-3.37-2.87-2.56-2.11-4.74-4.32-6.89-6.85-3.59-4.15-7.38-8.05-11.28-11.92q-1.08-1.08-2.2-2.2-3.62-3.61-7.25-7.22-2.61-2.6-5.22-5.2-5.61-5.6-11.22-11.18-8.88-8.85-17.75-17.71-3.05-3.04-6.09-6.07-0.76-0.76-1.53-1.54-8.64-8.62-17.28-17.23-0.79-0.79-1.6-1.59-12.78-12.75-25.57-25.49-13.16-13.11-26.3-26.24-8.09-8.08-16.2-16.14-6.22-6.19-12.42-12.4-2.54-2.53-5.08-5.05c-28.44-28.23-28.44-28.23-28.94-45.35 0.17-10.32 3.65-19.47 10.55-27.27 13.88-12.52 32.74-14.88 48.24-3.59z"/>
	<path class="s1" d="m320.11 452.85q1.22 0 2.47-0.01 4.08-0.01 8.16-0.02 2.92-0.01 5.85-0.02 9.61-0.03 19.23-0.04 3.31 0 6.62-0.01 15.57-0.03 31.15-0.04 17.95-0.02 35.9-0.08 13.89-0.04 27.78-0.05 8.29 0 16.57-0.03 7.81-0.04 15.61-0.02 2.86 0 5.71-0.02c10.31-0.07 19.26 0.18 28.84 4.49q1.66 0.75 3.37 1.51c8.06 4.65 14.3 10.51 20.74 17.11q1.65 1.67 3.31 3.33 4.31 4.34 8.58 8.71 4.4 4.46 8.81 8.91 8.62 8.69 17.19 17.43c-5.06 6.12-10.57 11.72-16.19 17.32q-1.54 1.54-3.07 3.07-4.14 4.15-8.29 8.29-4.35 4.35-8.7 8.71-7.31 7.31-14.62 14.61-8.43 8.43-16.86 16.86-7.25 7.26-14.51 14.52-4.33 4.32-8.65 8.65-4.07 4.07-8.14 8.13-1.49 1.49-2.97 2.98c-4.99 4.99-10.01 9.87-15.39 14.44-2.18 1.92-4.01 4.06-5.86 6.29-10.52 11.88-24.79 20.51-40.75 22.13-17.59 1.01-32.89 0.03-48-10-1.8-1.68-1.8-1.68-3-3 1.42-3.21 3.11-5.36 5.59-7.83q1.11-1.12 2.25-2.27 1.22-1.21 2.48-2.46 1.28-1.29 2.6-2.61 3.54-3.54 7.09-7.08 3.71-3.7 7.42-7.41 6.23-6.23 12.47-12.45 7.21-7.18 14.4-14.37 7.66-7.67 15.34-15.33 2.21-2.2 4.41-4.41 4.12-4.11 8.24-8.22 1.21-1.21 2.46-2.46c3.61-3.59 7.2-7 11.25-10.1q2.53-2.47 5-5 1.23-1.21 2.5-2.46 1.23-1.22 2.5-2.48 1.23-1.21 2.5-2.46c1.81-1.89 3.5-3.75 5.16-5.76q1.15-1.4 2.34-2.84c-1.76 0-1.76 0-3.55 0q-41.78-0.06-83.56-0.18-5.15-0.01-10.29-0.03-1.02 0-2.07 0-16.57-0.05-33.15-0.06-17.01-0.02-34.02-0.08-9.55-0.04-19.1-0.04-9 0-17.99-0.05-3.3-0.01-6.6-0.01-4.51 0.01-9.01-0.03c-1.31 0.01-1.31 0.01-2.63 0.02-8.6-0.12-14.33-3.43-20.53-9.29q-1.28-1.19-2.59-2.42-0.94-0.9-1.91-1.83c1.47-3.39 3.36-5.61 5.96-8.22q1.21-1.22 2.47-2.48 1.31-1.31 2.66-2.66 1.35-1.35 2.74-2.74 2.86-2.86 5.73-5.72 3.68-3.67 7.34-7.35 3.5-3.51 7.01-7 1.31-1.32 2.66-2.68 1.22-1.21 2.47-2.45 1.07-1.07 2.18-2.17c1.78-1.53 1.78-1.53 3.78-1.53 0.49-1.49 0.49-1.49 1-3 10.39-9.16 20.19-14.15 34.11-14.15z"/>
	<path class="s2" d="m712 462c6.17 5.12 11.87 10.65 17.56 16.29q0.74 0.72 1.49 1.47 3.88 3.85 7.76 7.7 3.2 3.18 6.42 6.34 3.91 3.84 7.79 7.71 1.48 1.46 2.97 2.92 2.06 2.02 4.1 4.08c1.17 1.16 1.17 1.16 2.37 2.34 1.54 2.15 1.54 2.15 1.28 4.43q-0.36 0.85-0.74 1.72-0.36-0.85-0.73-1.72c-1.52-2.74-3.34-4.59-5.56-6.8q-1.33-1.33-2.69-2.69-1.46-1.44-2.92-2.88-1.49-1.49-2.99-2.98-3.93-3.92-7.87-7.83-4-3.97-7.99-7.95-7.03-7-14.07-13.99-1.08-1.06-2.18-2.16-1.13-1.06-2.28-2.16c-1.72-1.84-1.72-1.84-1.72-3.84z"/>
	<path class="s3" d="m534 636q0.49 1.48 1 3-0.85 0.74-1.73 1.51c-7.39 6.54-14.34 13.47-21.27 20.49q-0.99-0.49-2-1c7.92-7.92 15.84-15.84 24-24z"/>
	<path class="s4" d="m437 579q0.49 0.99 1 2c-3.72 4.56-7.55 8.48-12.03 12.29-2.8 2.43-5.38 5.05-7.97 7.71q-0.99-0.49-2-1c6.93-6.93 13.86-13.86 21-21z"/>
	<path class="s5" d="m418 752q1.48 0.49 3 1c-3.96 3.47-3.96 3.47-8 7q-0.99-0.49-2-1c2.31-2.31 4.62-4.62 7-7z"/>
	<path class="s6" d="m399 190q0.49 1.48 1 3c-1.81 2.69-1.81 2.69-4 5q-0.99 0-2 0-0.49-1.48-1-3c1.98-1.65 3.96-3.3 6-5z"/>
	<path class="s7" d="m455 561c1 2 1 2 0.44 4-2.01 2.8-4.18 3.15-7.44 4q1.47-1.72 2.94-3.44 0.81-0.95 1.65-1.93 1.16-1.36 2.41-2.63z"/>
	<path class="s8" d="m391 625q0.49 0.99 1 2c-2.48 3.45-3.8 5.23-8 6q1.47-1.72 2.94-3.44 0.81-0.95 1.65-1.93 1.16-1.36 2.41-2.63z"/>
	<path class="s9" d="m1087-5c0 3.97-1.31 5.16-4 8-2.14 0.65-2.14 0.65-4 1q1.44-1.69 2.88-3.38 0.79-0.93 1.61-1.89 1.69-1.93 3.51-3.73z"/>
	<path class="s10" d="m437 579q0.49 0.99 1 2c-1.65 1.98-3.3 3.96-5 6q-0.99-0.99-2-2c1.98-1.98 3.96-3.96 6-6z"/>
	<path class="s11" d="m601 455c3.37 1.39 4.99 2.98 7 6-3 0-3 0-5.19-1.88-1.81-2.12-1.81-2.12-1.81-4.12z"/>
</svg>